<mxfile host="app.diagrams.net" modified="2022-01-24T11:26:28.090Z" agent="5.0 (Windows NT 10.0; Win64; x64) AppleWebKit/537.36 (KHTML, like Gecko) Chrome/97.0.4692.71 Safari/537.36 Edg/97.0.1072.62" etag="VzsnYpvXRKAKSpC1m3g3" version="16.2.4" type="github">
  <diagram id="N0AUgcmTbGkNC3BxYgMO" name="Page-1">
    <mxGraphModel dx="1422" dy="762" grid="1" gridSize="10" guides="1" tooltips="1" connect="1" arrows="1" fold="1" page="1" pageScale="1" pageWidth="827" pageHeight="1169" math="0" shadow="0">
      <root>
        <mxCell id="0" />
        <mxCell id="1" parent="0" />
        <mxCell id="MxBJ1zMMHjyBSrrAAL6q-1" value="&lt;font style=&quot;font-size: 13px&quot;&gt;New&lt;/font&gt;" style="html=1;shadow=0;dashed=0;shape=mxgraph.bootstrap.rrect;rSize=5;strokeColor=none;strokeWidth=1;fillColor=#6C767D;fontColor=#ffffff;whiteSpace=wrap;align=left;verticalAlign=middle;fontStyle=0;fontSize=14;spacingLeft=10;" vertex="1" parent="1">
          <mxGeometry x="18" y="50" width="80" height="30" as="geometry" />
        </mxCell>
        <mxCell id="MxBJ1zMMHjyBSrrAAL6q-2" value="" style="shape=triangle;direction=south;fillColor=#ffffff;strokeColor=none;perimeter=none;" vertex="1" parent="MxBJ1zMMHjyBSrrAAL6q-1">
          <mxGeometry x="1" y="0.5" width="10" height="5" relative="1" as="geometry">
            <mxPoint x="-17" y="-2.5" as="offset" />
          </mxGeometry>
        </mxCell>
        <mxCell id="MxBJ1zMMHjyBSrrAAL6q-3" value="" style="html=1;shadow=0;dashed=0;shape=mxgraph.bootstrap.rrect;rSize=5;fillColor=#ffffff;strokeColor=#999999;" vertex="1" parent="1">
          <mxGeometry x="18" y="82" width="120" height="77" as="geometry" />
        </mxCell>
        <mxCell id="MxBJ1zMMHjyBSrrAAL6q-4" value="Binary" style="fillColor=none;strokeColor=none;align=left;spacing=20;fontSize=13;" vertex="1" parent="MxBJ1zMMHjyBSrrAAL6q-3">
          <mxGeometry width="120" height="30" relative="1" as="geometry">
            <mxPoint y="5" as="offset" />
          </mxGeometry>
        </mxCell>
        <mxCell id="MxBJ1zMMHjyBSrrAAL6q-5" value="Tabular" style="fillColor=none;strokeColor=none;align=left;spacing=20;fontSize=13;" vertex="1" parent="MxBJ1zMMHjyBSrrAAL6q-3">
          <mxGeometry width="120" height="30" relative="1" as="geometry">
            <mxPoint y="43" as="offset" />
          </mxGeometry>
        </mxCell>
        <mxCell id="MxBJ1zMMHjyBSrrAAL6q-13" value="" style="shape=line;strokeColor=#999999;perimeter=none;resizeWidth=1;" vertex="1" parent="MxBJ1zMMHjyBSrrAAL6q-3">
          <mxGeometry width="120" height="10" relative="1" as="geometry">
            <mxPoint y="34" as="offset" />
          </mxGeometry>
        </mxCell>
        <mxCell id="MxBJ1zMMHjyBSrrAAL6q-33" value="Choose file" style="html=1;shadow=0;dashed=0;shape=mxgraph.bootstrap.rrect;rSize=5;strokeColor=#CED4DA;html=1;whiteSpace=wrap;fillColor=#FFFFFF;fontColor=#7D868C;align=left;spacingLeft=0;spacing=15;fontSize=14;" vertex="1" parent="1">
          <mxGeometry x="160" y="52" width="627" height="30" as="geometry" />
        </mxCell>
        <mxCell id="MxBJ1zMMHjyBSrrAAL6q-34" value="&lt;font style=&quot;font-size: 13px&quot; color=&quot;#ffffff&quot;&gt;Browse&lt;/font&gt;" style="html=1;shadow=0;dashed=0;shape=mxgraph.bootstrap.rightButton;strokeColor=#23445d;fillColor=#6C767D;rSize=5;perimeter=none;whiteSpace=wrap;resizeHeight=1;fontSize=14;" vertex="1" parent="MxBJ1zMMHjyBSrrAAL6q-33">
          <mxGeometry x="1" width="70" height="30" relative="1" as="geometry">
            <mxPoint x="-70" as="offset" />
          </mxGeometry>
        </mxCell>
        <mxCell id="MxBJ1zMMHjyBSrrAAL6q-41" value="&lt;MetaAttri_1&gt;" style="fillColor=none;strokeColor=none;align=left;fontSize=12;fontColor=#212529;" vertex="1" parent="1">
          <mxGeometry x="160" y="320" width="82" height="20" as="geometry" />
        </mxCell>
        <mxCell id="MxBJ1zMMHjyBSrrAAL6q-42" value="&amp;lt;MetaValue_1&amp;gt;" style="html=1;shadow=0;dashed=0;shape=mxgraph.bootstrap.rrect;rSize=5;fillColor=none;strokeColor=#999999;align=left;spacing=15;fontSize=12;fontColor=#6C767D;" vertex="1" parent="1">
          <mxGeometry x="247" y="320" width="535" height="20" as="geometry" />
        </mxCell>
        <mxCell id="MxBJ1zMMHjyBSrrAAL6q-48" value="Upload" style="html=1;shadow=0;dashed=0;shape=mxgraph.bootstrap.rrect;rSize=5;strokeColor=none;strokeWidth=1;fillColor=#6C767D;fontColor=#FFFFFF;whiteSpace=wrap;align=center;verticalAlign=middle;spacingLeft=0;fontStyle=0;fontSize=14;spacing=5;fontFamily=Helvetica;" vertex="1" parent="1">
          <mxGeometry x="18" y="245" width="70" height="30" as="geometry" />
        </mxCell>
        <mxCell id="MxBJ1zMMHjyBSrrAAL6q-49" value="&lt;MetaAttri_2&gt;" style="fillColor=none;strokeColor=none;align=left;fontSize=12;fontColor=#212529;" vertex="1" parent="1">
          <mxGeometry x="160" y="345" width="82" height="20" as="geometry" />
        </mxCell>
        <mxCell id="MxBJ1zMMHjyBSrrAAL6q-50" value="&amp;lt;MetaValue_2&amp;gt;" style="html=1;shadow=0;dashed=0;shape=mxgraph.bootstrap.rrect;rSize=5;fillColor=none;strokeColor=#999999;align=left;spacing=15;fontSize=12;fontColor=#6C767D;" vertex="1" parent="1">
          <mxGeometry x="247" y="345" width="535" height="20" as="geometry" />
        </mxCell>
        <mxCell id="MxBJ1zMMHjyBSrrAAL6q-51" value="&lt;MetaAttri_3&gt;" style="fillColor=none;strokeColor=none;align=left;fontSize=12;fontColor=#212529;" vertex="1" parent="1">
          <mxGeometry x="160" y="370" width="82" height="20" as="geometry" />
        </mxCell>
        <mxCell id="MxBJ1zMMHjyBSrrAAL6q-52" value="&amp;lt;MetaValue_3&amp;gt;" style="html=1;shadow=0;dashed=0;shape=mxgraph.bootstrap.rrect;rSize=5;fillColor=none;strokeColor=#999999;align=left;spacing=15;fontSize=12;fontColor=#6C767D;" vertex="1" parent="1">
          <mxGeometry x="247" y="370" width="535" height="20" as="geometry" />
        </mxCell>
        <mxCell id="MxBJ1zMMHjyBSrrAAL6q-53" value="&lt;MetaAttri_4&gt;" style="fillColor=none;strokeColor=none;align=left;fontSize=12;fontColor=#212529;" vertex="1" parent="1">
          <mxGeometry x="160" y="395" width="82" height="20" as="geometry" />
        </mxCell>
        <mxCell id="MxBJ1zMMHjyBSrrAAL6q-54" value="&amp;lt;MetaValue_4&amp;gt;" style="html=1;shadow=0;dashed=0;shape=mxgraph.bootstrap.rrect;rSize=5;fillColor=none;strokeColor=#999999;align=left;spacing=15;fontSize=12;fontColor=#6C767D;" vertex="1" parent="1">
          <mxGeometry x="247" y="395" width="535" height="20" as="geometry" />
        </mxCell>
        <mxCell id="MxBJ1zMMHjyBSrrAAL6q-57" value="&lt;font style=&quot;font-size: 16px&quot;&gt;Insert or upload Metadata&lt;/font&gt;" style="html=1;shadow=0;dashed=0;shape=mxgraph.bootstrap.topButton;rSize=5;perimeter=none;whiteSpace=wrap;fillColor=#6C767D;strokeColor=#DFDFDF;fontColor=#DEE2E6;resizeWidth=1;fontSize=18;" vertex="1" parent="1">
          <mxGeometry x="160" y="240" width="630" height="40" as="geometry" />
        </mxCell>
      </root>
    </mxGraphModel>
  </diagram>
</mxfile>
